<?xml version="1.0" encoding="utf-8"?>
<!-- Generator: Adobe Illustrator 19.0.0, SVG Export Plug-In . SVG Version: 6.00 Build 0)  -->
<svg version="1.1" xmlns="http://www.w3.org/2000/svg" xmlns:xlink="http://www.w3.org/1999/xlink" x="0px" y="0px"
	 viewBox="0 0 612 792" style="enable-background:new 0 0 612 792;" xml:space="preserve">
<style type="text/css">
	.st0{fill:none;stroke:#ED1C24;stroke-width:0.5;stroke-miterlimit:10;}
	.st1{fill:none;stroke:#00AEEF;stroke-width:0.5;stroke-miterlimit:10;}
	.st2{fill:none;stroke:#FCEF44;stroke-width:0.5;stroke-miterlimit:10;}
</style>
<g id="_x32_">
	<path id="XMLID_2_" class="st0" d="M317.1,363.6c-4.3-19.4-31.6-22.9-31.6-22.9c4,5,7.8,20.3,7.8,20.3c-15-2.3-25.8,9-25.8,9
		c9.8,1.7,14.8,4.5,14.8,4.5c-6.3-0.8-8.8,7.8-8.8,7.8c11.7,1.2,13,3.2,13,3.2c-4.7,1-4.8,7.5-4.8,7.5c4.8,1,7.8,2.7,7.8,2.7
		s-5.7,2.2-3.5,26.3c0.8,9.2,5.3,21,7.3,21.8c5.8,2.2,27.5,1.7,31.5,1.3c6.8-0.8,9.3-17.3,9.4-23.5c0.2-8.5,1.3-22.5-5-26.2
		c0,0,3.5-1.7,11-0.8c0,0-1.5-5.2-5.7-8.5c0,0,2-3,14.7-3.2c0,0-6.2-10.3-13.2-10c0,0-0.4-1.5,12.1-4.5c0,0-13.4-10-22.8-8.1
		C319.3,361.5,317.1,363.6,317.1,363.6z"/>
</g>
<g id="_x31__1_">
	<path id="XMLID_1_" class="st1" d="M315.5,370.3c-4.3-19.4-23.2-24.3-23.2-24.3c4,5,7.4,20.6,7.4,20.6c-9.8-4.1-19.8,2.7-19.8,2.7
		c9.9,3.5,11.7,7.2,11.7,7.2c-6.3-0.8-10,4-10,4c9.3,2,11.6,5.5,11.6,5.5c-5.8-0.2-7.4,5.5-7.4,5.5c5.5,0.8,9.5,3.3,9.5,3.3
		s-8,3.4-5.8,27.5c0.8,9.2,4.4,16.8,6.3,17.5c5.8,2.2,23.3,1.2,27.3,1c5.5-0.3,8.2-13.2,8.3-19.3c0.2-8.5,0.5-21.9-7-26.4
		c0,0,2.4-3.8,9.9-3c0,0-1.8-4.9-4.9-5.5c0,0,3.6-4.3,12.5-5.3c0,0-5.8-8.3-13-6c0,0,0.7-4.4,11-7.5c0,0-10.8-8.2-21.3-0.5
		C316.4,369.1,315.5,370.3,315.5,370.3z"/>
</g>
<g id="_x30_">
	<path id="XMLID_3_" class="st2" d="M314.3,378.1c-4-18-16.6-26.3-16.6-26.3c3,1.8,6.7,22,6.7,22c-8.3-7.7-18.6-4.2-18.6-4.2
		c9.2,3.3,13.1,10.5,13.1,10.5c-5.5-3-12.1,0-12.1,0c9.3,1.2,13.1,8.9,13.1,8.9c-5.9-2.2-9.5,1.2-9.5,1.2c5.1,0.7,10.7,4.9,10.7,4.9
		s-11.1,3-9.1,25.4c0.8,8.6,4.9,16.1,6.7,16.8c5.3,2.1,17,1.6,20.8,1.3c5.1-0.3,8.5-13,8.6-18.7c0.2-7.9,1.9-17.3-8.4-25
		c0,0,4.7-5.3,9.9-5c0,0-1.2-3.2-6.2-1.9c0,0,5.3-7.1,13.7-8c0,0-5.8-4.1-14.3,0.3c0,0,2-9.8,11.6-12.7c0,0-8.6-4.1-17.6,5.9
		C314.9,375.5,314.3,378.1,314.3,378.1z"/>
</g>
</svg>
