<?xml version="1.0" encoding="utf-8"?>
<!-- Generator: Adobe Illustrator 19.0.0, SVG Export Plug-In . SVG Version: 6.00 Build 0)  -->
<svg version="1.1" xmlns="http://www.w3.org/2000/svg" xmlns:xlink="http://www.w3.org/1999/xlink" x="0px" y="0px"
	 viewBox="0 0 226.9 274.9" style="enable-background:new 0 0 226.9 274.9;" xml:space="preserve">
<style type="text/css">
	.st0{fill:none;stroke:#FFF200;stroke-width:3;stroke-miterlimit:10;}
	.st1{fill:none;stroke:#FFF200;stroke-width:2;stroke-miterlimit:10;}
</style>
<g id="_x38_">
	<g id="inner_circle_copy_5">
	</g>
	<g id="XMLID_29_">
		<circle id="XMLID_31_" class="st0" cx="112.5" cy="145.7" r="32.6"/>
		<polygon id="XMLID_30_" class="st1" points="201.5,144 189.9,146.8 200.5,150.5 195.7,175.5 183,172.5 194.4,179.2 185.5,194.6 
			181.3,193.1 182.6,198.1 168.9,213.6 162.4,218.3 153.8,209.9 158.6,221.2 151.3,225.2 149.1,222.3 148.7,226.3 124.2,233.4 
			121,226.2 119.6,234.1 112.5,233.7 108.1,234.3 104,234 99.8,233.8 96.5,233.1 96.2,219.1 92.1,232.3 87.4,231.3 81,228.7 
			79.7,222.8 74.6,226 72,224.9 65.7,222.3 65.6,212.8 57.1,216.4 52.1,212.6 46.1,206 49,199.7 43.6,203.2 36.6,195.4 46.9,184.4 
			34.1,191.4 32.6,189.1 29.1,182.3 27.3,177.2 33,172.7 25.8,173 24.1,168 25.5,166.6 23.1,165.2 21.7,157.9 21.3,153.7 20.6,144 
			20.7,139.2 21.3,134.3 28.9,132.1 22,128.2 24.2,118.7 26.9,111.5 29.7,104.4 46.4,107.8 35.3,95.5 40,88.1 44.1,83.2 47.9,79.5 
			55.1,82.7 52.3,75.3 60.3,70.3 67.1,66.1 75.8,60.7 83.1,58.4 88.4,65.5 88.4,56.7 93.8,54.3 102.5,52.8 114.2,53.8 118.3,71.3 
			121.2,54.3 126.8,54.8 140.4,57 149.1,59.8 147.8,68.2 151.4,62.8 154.6,64.7 160.5,68.3 158.4,74.2 161.6,69.9 165.2,72.1 
			174.5,79.6 179.3,84.8 166.2,99.8 182.5,88.8 189.6,96.6 186.4,102.7 191,99.5 195.4,112 185.9,119.2 196.7,115.6 198.3,120.1 		
			"/>
	</g>
</g>
<g id="_x37_">
	<g id="inner_circle_copy_3">
	</g>
</g>
<g id="_x36_">
	<g id="inner_circle_copy_8">
	</g>
</g>
<g id="_x35_">
	<g id="inner_circle_copy_6">
	</g>
</g>
<g id="_x34_">
	<g id="inner_circle_copy_4">
	</g>
</g>
<g id="_x33_">
	<g id="inner_circle_copy">
	</g>
</g>
<g id="_x32_">
	<g id="inner_circle_copy_7">
	</g>
</g>
<g id="_x31__1_">
	<g id="inner_circle">
	</g>
</g>
<g id="_x30_">
	<g id="inner_circle_copy_2">
	</g>
</g>
</svg>
