<?xml version="1.0" encoding="utf-8"?>
<!-- Generator: Adobe Illustrator 19.0.0, SVG Export Plug-In . SVG Version: 6.00 Build 0)  -->
<svg version="1.1" xmlns="http://www.w3.org/2000/svg" xmlns:xlink="http://www.w3.org/1999/xlink" x="0px" y="0px"
	 viewBox="0 0 325.9 316.9" style="enable-background:new 0 0 325.9 316.9;" xml:space="preserve">
<style type="text/css">
	.st0{fill:none;stroke:#FFF200;stroke-width:2;stroke-miterlimit:10;}
</style>
<g id="_x38_">
	<g id="inner_circle_copy_5">
	</g>
	<path id="XMLID_6_" class="st0" d="M280.8,165.2l-4.2-31.8l-2.1-6l-14.3,4.8l12.6-9.6l-5.8-16.6l-6.1,4.2l4.2-8.1l-9.3-10.4
		l-21.7,14.6l17.3-19.9l-6.3-7l-12.3-10l-4.8-3l-4.2,5.8l2.8-7.9l-7.9-4.8l-4.2-2.5l-4.9,7.1l1.8-11.2l-11.6-3.7l-18-2.9l-7.4-0.6
		l-3.9,22.6l-5.5-23.3l-15.5-1.3l-11.6,1.9l-7.1,3.2v11.6l-7.1-9.4l-9.6,3l-11.6,7.2l-9,5.6l-10.7,6.6l3.8,10l-9.5-4.4l-5.1,5
		L66,90.8l-6.2,9.9L74.5,117l-22.2-4.5l-3.6,9.5l-3.7,9.5l-2.9,12.6l9.2,5.2l-10.1,2.9l-0.7,6.5l-0.2,6.5l1,12.9l0.4,5.5l1.9,9.7
		l3.2,2l-1.9,1.8l2.3,6.7l9.5-0.4l-7.6,6l2.4,6.8l4.7,9l1.9,3.1l17-9.3l-13.6,14.7l9.3,10.3l7.2-4.6l-3.9,8.4l7.9,8.8l6.6,5.1
		l11.3-4.8l0.1,12.6l8.4,3.5l3.5,1.5l6.7-4.3l1.8,7.8l8.6,3.6l6.2,1.2l5.5-17.5l0.4,18.6l4.5,0.9l5.5,0.3l5.5,0.3l5.8-0.7l9.4,0.4
		l1.9-10.5l4.2,9.6l32.6-9.5l0.5-5.3l2.9,3.9l9.7-5.3l-6.3-15l11.4,11.1l8.6-6.3l18.3-20.6l-1.8-6.6l5.6,2l11.8-20.5l-15.1-9
		l16.9,4.1l6.4-33.4l-14.1-4.9L280.8,165.2z M162.5,210.8c-23.9,0-43.3-19.4-43.3-43.3s19.4-43.3,43.3-43.3
		c23.9,0,43.3,19.4,43.3,43.3S186.4,210.8,162.5,210.8z"/>
</g>
<g id="_x37_">
	<g id="inner_circle_copy_3">
	</g>
</g>
<g id="_x36_">
	<g id="inner_circle_copy_8">
	</g>
</g>
<g id="_x35_">
	<g id="inner_circle_copy_6">
	</g>
</g>
<g id="_x34_">
	<g id="inner_circle_copy_4">
	</g>
</g>
<g id="_x33_">
	<g id="inner_circle_copy">
	</g>
</g>
<g id="_x32_">
	<g id="inner_circle_copy_7">
	</g>
</g>
<g id="_x31__1_">
	<g id="inner_circle">
	</g>
</g>
<g id="_x30_">
	<g id="inner_circle_copy_2">
	</g>
</g>
</svg>
