<?xml version="1.0" encoding="utf-8"?>
<!-- Generator: Adobe Illustrator 19.0.0, SVG Export Plug-In . SVG Version: 6.00 Build 0)  -->
<svg version="1.1" xmlns="http://www.w3.org/2000/svg" xmlns:xlink="http://www.w3.org/1999/xlink" x="0px" y="0px"
	 viewBox="0 0 612 792" style="enable-background:new 0 0 612 792;" xml:space="preserve">
<style type="text/css">
	.st0{fill:#33B44A;}
	.st1{fill:#FFF33B;}
</style>
<g id="_x33_00">
	<path id="XMLID_116_" class="st0" d="M289,352c0,0,7.3-17.3,17.3-22c0,0-8-45.3-12-52s-10-16.8-10-16.8s-7.3,36-7,42
		s0.8,19.8-0.5,22.5S289,352,289,352z"/>
</g>
<g id="_x32_99">
	<path id="XMLID_117_" class="st0" d="M314.5,323.8l24.5-36.3c0,0-9.5,27.5-9.8,36s-5,12.5-5.8,12.5s-0.8-12.8-0.3-13.5
		S314.5,323.8,314.5,323.8z"/>
</g>
<g id="_x32_98">
	<path id="XMLID_113_" class="st0" d="M270.5,355.8c0,0,2.3-5,3.5-4.8s9.8,6.5,12,5.5s-7-21.8-12.8-28.3s-20-22.5-20-22.5
		s1.3,26.8,6,33.8S270.5,355.8,270.5,355.8z"/>
</g>
<g id="_x32_97">
	<path id="XMLID_109_" class="st0" d="M323.5,343.3c0,0.8,0.5,10.5,0,12.7s-1.3,6.5-1.3,6.5s9.7-9.2,10.8-11.7s15.3-22.8,18.5-25.2
		c3.2-2.3,13.8-13,11.7-12.5c-2.2,0.5-23,13.8-24,15.3s-3.3,4.2-5.2,5S323.5,343.3,323.5,343.3z"/>
</g>
<g id="_x32_96">
	<path id="XMLID_110_" class="st0" d="M310,381.2c0,0,4.2-0.2,4.7-1.2s5.8-23,6.2-27.2c0.3-4.2-1.5-28-1.5-28s-14.7,8.3-19.2,14.8
		s-8.5,17-7.5,19.5s7.3,5.2,10.2,9.7C305.7,373.3,310,381.2,310,381.2z"/>
</g>
<g id="_x32_95">
	<path id="XMLID_114_" class="st0" d="M267.3,371c0,0,0-6.8,1.3-7.8s-21.3-24.3-35-30.5S265,365,267.3,371z"/>
</g>
<g id="_x32_94">
	<path id="XMLID_111_" class="st0" d="M317.5,378.5c0,0,2.2-9.3,3-10.5s8.8-4.8,14.5-13.7c5.7-8.8,17.3-14.2,20.2-15.2
		c2.8-1,5.2-1.5,5.2-1s-13.2,9.2-16,13.5c-2.8,4.3-10.7,10.7-11.3,14c-0.7,3.3-1.3,4.5-2.3,5s-9.2,7.5-10,8.2
		C319.8,379.5,317.5,378.5,317.5,378.5z"/>
</g>
<g id="_x32_93">
	<path id="XMLID_106_" class="st0" d="M294.7,392.2c0,0,4-5.5,5.2-6.2c1.2-0.7,8-2.5,7.7-3.2c-0.3-0.7-5.5-13.5-9-15.2
		c-3.5-1.7-15.5-9.2-17.2-9.8c-1.7-0.7-6.8-3.8-6.8-3.8s-3.5,12-3.5,15s0.3,5.2,5,8.3C280.7,380.5,294.7,392.2,294.7,392.2z"/>
</g>
<g id="_x32_92">
	<path id="XMLID_112_" class="st0" d="M255.5,377c0,0-24-20.3-23.8-21c0,0,23.5,17.8,24,18.5S255.5,377,255.5,377z"/>
</g>
<g id="_x32_91">
	<path id="XMLID_108_" class="st0" d="M324.5,379.8c0,0,1.8,6,1.8,7.2s16.3-21.5,26.2-21.5c0,0-11.3,1.5-18,6.2
		C327.8,376.3,324.5,379.8,324.5,379.8z"/>
</g>
<g id="_x32_90">
	<path id="XMLID_107_" class="st0" d="M329,388.5c0,0,7.8-10.7,10.7-12.2c2.8-1.5,10.5-7.5,11.2-7c0.7,0.5-9.2,10.3-11.2,12.2
		S329,388.5,329,388.5z"/>
</g>
<g id="_x32_89">
	<path id="XMLID_100_" class="st0" d="M259.6,371.1c0,0,8.6,6.4,12.1,7.9s21.3,15.3,22,17s-1,5,0.1,6.9s1.4,3.4,1.4,3.4
		s-1.6,0-2.1,1s-0.4,1.5-1.3,1.5s-5-5.4-7.3-6s-7.9-0.8-8.5-1.5s-0.3-4.9-1.3-6.3s-5.9-8.3-8.3-9.6s-7-6-7.5-8.4
		S259.6,371.1,259.6,371.1z"/>
</g>
<g id="_x32_88">
	<path id="XMLID_104_" class="st0" d="M297.6,403.8c0.2,0.9,9.5,0.3,10.3,0.5c0,0,5.1-7.8,6.9-8.4s7.9-3,7.9-4.1s0-6-0.6-5.6
		s-0.3,1.8-4.3,0.5s-12.6-2.3-15.6,0.3S296.1,394.4,297.6,403.8z"/>
</g>
<g id="_x32_87">
	<path id="XMLID_103_" class="st0" d="M255.3,379.9c0,0-0.1,1.3,0.9,2.5s5.9,7.5,6.9,8.4s2.3,4.6,3,5.4s2.9,4,3.8,4.4
		s2.5,0.5,2.9,0.1s-4.1-7-5-8s-2.8-3.1-3.9-4S255.3,379.9,255.3,379.9z"/>
</g>
<g id="_x32_86">
	<path id="XMLID_102_" class="st0" d="M252.9,392.8c0,0,4.1,1.6,6.4,2.8s6,2.3,6.3,3.8s0.3,1.5,0.3,1.5s-2.8,1.5-3.4,1.3
		s-5.6-5.6-6.6-6S252.9,392.8,252.9,392.8z"/>
</g>
<g id="_x32_85">
	<path id="XMLID_105_" class="st0" d="M312.1,405.1c0,0.5,3.5,3.5,3.5,4.5s4.9-6.6,5.3-7.5s4.6-6,3.9-5.8s-1.6,1.9-3,1.1
		s-1-2.3-3.3-0.3S312.1,405.1,312.1,405.1z"/>
</g>
<g id="_x32_84">
	<path id="XMLID_96_" class="st0" d="M316.5,412.3c-0.7,0-0.5,3.6,0.4,3.6s4.8-0.9,7.8-8s2.6-8.6,3.8-9.6c0,0-5.4,5.8-5.6,7
		S318.1,412.3,316.5,412.3z"/>
</g>
<g id="_x32_83">
	<path id="XMLID_99_" class="st0" d="M277.8,423.5c1.5,0.2,3.8,1.4,4.4,1.1s3.5-6.4,5-6.6s5.9-1.3,6.3-1.8s-8-8.6-12.4-10.3
		s-10.3-1.5-14.8-0.5s-4.4,1.3-3.5,1.5s12.4,8.3,13.4,10.9S276.9,423.4,277.8,423.5z"/>
</g>
<g id="_x32_82">
	<path id="XMLID_91_" class="st0" d="M294.5,411.5c0.5,1.1,2.6,3.4,2.6,5.1c0,0,8.9,4.4,9.6,5.3s5-3.3,6.4-3.6s1.9-1.5,1.5-2.8
		s-1.4-5.6-2.1-5.8s-6.1,1.1-6.9,2.9s-3.5-1.9-5.5-2.6s-3.5-2.4-4.4-1.3S294.5,411.5,294.5,411.5z"/>
</g>
<g id="_x32_81">
	<path id="XMLID_98_" class="st0" d="M322,417c0,0,3.3,2,3.6,1.9s9-9.9,14.3-10.6c0,0-5.9,0.3-11.3,3.8S322,417,322,417z"/>
</g>
<g id="_x32_80">
	<path id="XMLID_101_" class="st0" d="M263.1,410.6c0,0-9.1-2.5-12.1-1.6s-5,2.9-5,3.6s3.1,0.5,3.8,0.5s4.9-1.9,6.8-1.9
		S263.1,410.6,263.1,410.6z"/>
</g>
<g id="_x32_79">
	<path id="XMLID_94_" class="st0" d="M256.4,414.1c0,0,7-1.4,10.5,0.6s7.9,6.8,8.4,8.8c0,0-7.6,1.5-8.4,1.3s1-4.1-1-5.8
		S256.4,414.1,256.4,414.1z"/>
</g>
<g id="_x32_78">
	<path id="XMLID_92_" class="st0" d="M293.8,419.8c0,0,5.6-0.3,7.9,1.8s3,2.8,3,2.8l-3.5,1.1C301.1,425.4,298.3,421.1,293.8,419.8z"
		/>
</g>
<g id="_x32_77">
	<path id="XMLID_97_" class="st0" d="M315.8,419.9c0,0,4.9-1.3,7.9,0.6s3.3,3.3,3.3,3.3S318.9,419.8,315.8,419.9z"/>
</g>
<g id="_x32_76">
	<path id="XMLID_88_" class="st0" d="M268,428c0,0,8.6-2.9,12.6-0.9s7.6,5.4,7.3,5.8s-3.9,1.9-7.8,1S268,428,268,428z"/>
</g>
<g id="_x32_75">
	<path id="XMLID_118_" class="st0" d="M286.1,426.1c0,0,1.8-2.4,2.4-3.6s7,1.1,8.3,3s3.1,3.6,2.8,4.1s-6.3-0.8-7.3-0.3
		s-1.9,1.1-2.5,0.8S286.1,426.1,286.1,426.1z"/>
</g>
<g id="_x32_74">
	<path id="XMLID_93_" class="st0" d="M302.1,429.8c0,0,1.9-3,3.4-3s2.9,1.6,2.9,2.8C308.4,429.5,304.6,430.3,302.1,429.8z"/>
</g>
<g id="_x32_73">
	<path id="XMLID_115_" class="st0" d="M309.1,424.9c0,0,2.5,3,1.9,4.3s2.9,3,4.6,2.8s3-0.6,3.4-2.8s3.4-4.3,3.4-4.3s-5.6-2.1-8-2
		S309.1,424.9,309.1,424.9z"/>
</g>
<g id="_x32_72">
	<path id="XMLID_164_" class="st0" d="M268.8,432c0,0,6.1,3.6,8.1,3.9s5.3,0.9,5.3,0.9s-4.6,0.8-6.9-0.1S268.8,432,268.8,432z"/>
</g>
<g id="_x32_71">
	<path id="XMLID_163_" class="st0" d="M292.5,434c-0.3,0.4,3.5,3,3.3,4.3s7,1.3,7,1.3s-3.3-3.3-4.9-4.3S292.5,434,292.5,434z"/>
</g>
<g id="_x32_70">
	<path id="XMLID_161_" class="st0" d="M302.6,438.3c0.1-0.4,5.1-6.5,6.5-6.3s3.6,1.9,3.6,1.9s-5.4,4.5-6.9,4.6
		S302.6,438.3,302.6,438.3z"/>
</g>
<g id="_x32_00">
	<path id="XMLID_69_" class="st1" d="M252.8,445c0,0,6.8,0.8,8.6,2.6c0,0,6.9-2.3,9-2.4c0,0,1.3-6.1-2.5-8.9s-8.3-2.8-10.6,1
		S252.8,445,252.8,445z"/>
</g>
<g id="_x31_99">
	<path id="XMLID_67_" class="st1" d="M274.8,446.6c0,0,3.5,3.9,3.8,6.5c0,0,4.6-1,6.5-0.5s4.1,1.4,4.9,0.9s3.8-5.3,6.1-4.9
		c0,0,1.3-2.5-0.9-4.8s-4.5-2.6-6.6-2.3s-2.8-0.9-3.6-0.9s-4.8-1.3-7,1.9S274.8,446.6,274.8,446.6z"/>
</g>
<g id="_x31_98">
	<path id="XMLID_48_" class="st1" d="M307.3,451c0.8,0,8.8-2.6,9-3.4s2.3-5.1,2.3-5.5s-5-5.3-5.8-5.3s-5.1,4.6-8.1,5.1
		s-5.9-0.1-6.3-0.4s0.4,5.6,1,6S306.1,451,307.3,451z"/>
</g>
<g id="_x31_97">
	<path id="XMLID_160_" class="st1" d="M318.3,436.1c1,1.5,2.1,3.4,2.9,3.4s3.4-0.4,4.8-0.1s2.5,0.1,1.5-0.5s-4.4-3-4-4.3
		s0-1.4-2-0.8S318.3,436.1,318.3,436.1z"/>
</g>
<g id="_x31_96">
	<path id="XMLID_162_" class="st1" d="M326.4,434l2.5,2.1c0,0,4.3-2.1,3.6-2.1S328.4,432.7,326.4,434z"/>
</g>
<g id="_x31_95">
	<path id="XMLID_70_" class="st1" d="M244.6,466.1c0,0,4.5-17.1,5.8-17.6s8.3-0.6,8.4,0.5s-2.8,5.9-2.6,8s1.6,8.1,0.8,8.6
		s-3.6,4.1-4.5,4S245.4,466,244.6,466.1z"/>
</g>
<g id="_x31_94">
	<path id="XMLID_68_" class="st1" d="M268.8,448.5c0,0-6.4,1-7.3,2.9s-3.6,10.4-2.8,11.4s4.1-0.4,5.8,0.1s4.3,1.3,4.3,1.3
		s3.3-6.8,3.8-6.8s-0.4-3,1-3.4s1.9,0.8,1.4-0.4s-4-1.9-4.6-2.4S268.8,448.5,268.8,448.5z"/>
</g>
<g id="_x31_93">
	<path id="XMLID_85_" class="st1" d="M275.6,476.9c0,0,6.6-0.5,7.4,1s6.8-11.6,11-12.1c0,0-2.5-3.3-2.9-4.9s-3.4-4.9-5.3-4.9
		s-7.8-1-10.3,3.3s-4.5,5.6-4.4,6.9S275.6,476.9,275.6,476.9z"/>
</g>
<g id="_x31_92">
	<path id="XMLID_66_" class="st1" d="M292.1,455.5c0,0,5,8.9,5.5,9s3.5-0.6,4.3-0.3c0,0,4.8-8.5,4.8-9.3s-4.9-4.4-7.8-4.3
		S292.1,455.5,292.1,455.5z"/>
</g>
<g id="_x31_91">
	<path id="XMLID_27_" class="st1" d="M305.8,464.4c0.3,1.5,10.6,9.5,10.6,10.9s2.1-1.4,4.5-2s5,0.1,5.4-0.6s4-11.1,4.9-11.6
		s-9.4-7.1-11.8-9.1s-9.4,0-9.8,0.9S305.8,464.4,305.8,464.4z"/>
</g>
<g id="_x31_90">
	<path id="XMLID_49_" class="st1" d="M318.3,448c1-0.6,3.5-6.4,5.4-6.5s10.3,0.1,12.1,4s4.8,9,4.8,9.8s-6.1,4.4-6.5,3.8
		s-10.4-8.4-11.5-8.9S318.3,448,318.3,448z"/>
</g>
<g id="_x31_89.5">
	<path id="XMLID_50_" class="st1" d="M340.8,447c-0.6,1.5,3.5,7.8,3.6,10.3c0,0,8,4,8.4,4.9c0,0-1-9.3,0.8-9.6s-5-8.7-5.3-8.8
		S341.2,446,340.8,447z"/>
</g>
<g id="_x31_89">
	<path id="XMLID_46_" class="st1" d="M330.9,438.9c0.1,1.3,5.9,5.6,6.5,5.8s4.3-1.9,5.9-2.2s3.7-0.5,3.7-0.5s-4.5-4.7-8.5-6
		c-2.6-0.9-4.8-0.1-5.5,0.8S330.9,438.9,330.9,438.9z"/>
</g>
<g id="_x31_88">
	<path id="XMLID_71_" class="st1" d="M240.9,487.5c0.8,1.3,3.8,0.3,5,0.3s3.5,2.5,4.5,2.1s4.6-2.5,4.5-3.9s-1.9-10.8-4.5-13.8
		s-5.6-2.9-5.6-2.9s-1.6,7.9-2.3,9.5S240.3,486.5,240.9,487.5z"/>
</g>
<g id="_x31_87_1_">
	<path id="XMLID_87_" class="st1" d="M278.6,480.6c2,0,13.1,14.5,13.1,15.6s-5.4,6-5.5,7.4s0.4,2-0.5,1.9s-8.8-1.5-10.9-1
		c0,0-8-14.6-8-15.1S275.1,480.6,278.6,480.6z"/>
</g>
<g id="_x31_87">
	<path id="XMLID_84_" class="st1" d="M264,486.6c0,0,6.5-9.3,8.8-8.8c0,0-2.5-9-6.3-11.4s-11.8,3.3-12,4.3s1.6,3.3,1.8,4.6
		s0.9,10.3,2,10.5S264,486.6,264,486.6z"/>
</g>
<g id="_x31_86">
	<path id="XMLID_4_" class="st1" d="M285.7,479.9c-0.3-0.3-0.4-0.7-0.1-1c2.1-2.2,5.7-8.6,9.1-9.5c3.7-1,7.7-2.7,9-1.3
		c1.2,1.2,7.2,7.2,8.8,8.8c0.2,0.2,0.3,0.6,0.1,0.9c-1.4,2.1-6.7,10.5-7.3,13.4c-0.1,0.3-0.2,0.5-0.5,0.5c-1.6,0.5-7.3,2.1-9,2.4
		c-0.3,0-0.6-0.1-0.7-0.3c-0.9-1.5-4.8-8-5.3-9.5C289.3,482.8,286.9,480.8,285.7,479.9z"/>
</g>
<g id="_x31_85">
	<path id="XMLID_53_" class="st1" d="M321.4,502.1c0,0,6-1.8,7.1-1.4c0,0,6.4-14.6,8.8-15.6c0,0-7.9-10.6-14-9.4
		s-12.9,12.6-13.4,15.3S319.1,498.6,321.4,502.1z"/>
</g>
<g id="_x31_84">
	<path id="XMLID_52_" class="st1" d="M330.8,473.4c-1.7-0.5,2.4-12.5,7.5-13.1s10.9,1.1,14.1,5.5c0,0-4.9,6-5.4,12s-0.5,6-0.5,6
		s-6.6,0.8-6.8,0.1S332.4,473.9,330.8,473.4z"/>
</g>
<g id="_x31_83">
	<path id="XMLID_165_" class="st1" d="M359.6,467.1c0,0-0.3-7.3-1.3-8.8s-2.8-4-2.8-4c-0.3,1.8-1.5,9.8-0.3,10.5
		S359.3,466.1,359.6,467.1s0.3,1,0.3,1L359.6,467.1z"/>
</g>
<g id="_x31_82">
	<path id="XMLID_83_" class="st1" d="M242,493c0,0,4.5-1,6.5,1.5s4.3,11.5,4.3,12.5s-1.9,0.8-2.8,1.8s-1.4,1.3-2,1s-1.4-1.8-3.1-1.9
		s-3.5-1-3.8-3.6S242,493,242,493z"/>
</g>
<g id="_x31_81">
	<path id="XMLID_86_" class="st1" d="M266.5,509c0,0,1.8-3,3.8-3.3c0,0-5.3-13.4-7.8-15.3s-6-1.8-7.1-1.1s-2.8,2.3-3.5,2.6
		s3.3,6.4,3.5,9.8s0.8,5,2.5,5.1S266.5,509,266.5,509z"/>
</g>
<g id="_x31_80">
	<path id="XMLID_80_" class="st1" d="M268.9,513.3c0,0,5.9,7.4,6.1,10c0,0,12-0.3,13.9,1.5c0,0,6-5.4,6.5-5.5s-4.9-9.4-8.8-10.6
		s-11.3-1.9-12.6-1.1S269,512.5,268.9,513.3z"/>
</g>
<g id="_x31_79">
	<path id="XMLID_65_" class="st1" d="M295.6,497.6c1.3-1,10.3-3.9,13.4-2.3s9.3,8.8,9.3,8.8s-8.1,12.8-9.1,12.9s-6.3-0.6-7.8-0.4
		s-2.9,0.9-3.6,0.5s0-1.4-0.4-1.8s-6.1-7.1-7.6-8.3S295.6,497.6,295.6,497.6z"/>
</g>
<g id="_x31_78">
	<path id="XMLID_55_" class="st1" d="M323.6,524.4c0,0,16.1-12,18.5-11.5c0,0-6-6.4-9.6-7.1s-7.9-2.8-12.3,1.5s-3.6,6-4.9,7.8
		s-1.8,2.4-1.8,2.4S323.1,523.3,323.6,524.4z"/>
</g>
<g id="_x31_77">
	<path id="XMLID_54_" class="st1" d="M332.4,502.4c0,0,8.3-12.1,9.3-14.1c0,0,5.1-2.3,5.9-1.3s7.1,7,7.8,7.5s-7.5,7.1-9.3,11.6
		s-1.8,4.5-1.8,4.5s-5-6-7.5-6.9S332.4,502.4,332.4,502.4z"/>
</g>
<g id="_x31_76.5">
	<path id="XMLID_167_" class="st1" d="M360.3,494.8l2.5-3.5c0,0,0,4.3,0,5S360.3,494.8,360.3,494.8z"/>
</g>
<g id="_x31_76">
	<path id="XMLID_51_" class="st1" d="M349.6,483.4c0.1,1.6,6.8,6.9,7.9,8.8c0,0,5.5-5.5,6.1-5.9s0.6-11-0.6-12.5s-4.9-5.4-7.3-5.5
		S349.4,478.5,349.6,483.4z"/>
</g>
<g id="_x31_75">
	<path id="XMLID_82_" class="st1" d="M243,511.5c2.8-0.8,7.8,8.6,8,11.1s-0.9,2.8,0,3.8s1.5,1.4,0.8,2.4s-3.5,2.1-3.8,3.1
		s-4.5,0.8-5.1,0s-2.9-7.5-2.6-11.4S241.6,511.9,243,511.5z"/>
</g>
<g id="_x31_74">
	<path id="XMLID_81_" class="st1" d="M250.4,514.4c0,0,3.1-3.9,4.1-4s7-0.1,9.1,2.6s5.9,11.4,5.9,11.9s-4.5,3.8-4.5,4.9
		s-4.8-2.4-7.4-2s-3-2.3-3-3.6s-0.9-4.6-2.5-6.4S250.4,514.4,250.4,514.4z"/>
</g>
<g id="_x31_73">
	<path id="XMLID_79_" class="st1" d="M267.9,531.3c0,0,4.6-3.9,5.8-3.9s14.8,1.8,17.1,4.3s6.5,9.6,7,10.1s-9.6,0.4-13.1,4.4
		s-5.5,5.4-6,5.4s-3.6-1.4-3.6-1.4s-1.1-9.1-2.8-11.4S267.9,531.3,267.9,531.3z"/>
</g>
<g id="_x31_72">
	<path id="XMLID_64_" class="st1" d="M292.5,527.9c0,0,6.6,7.4,7.1,9s2.3,5.6,4,5.8s10.1-7.4,12.1-7.4s2,0,2,0l-0.1-5.1l2.6-2.5
		c0,0-6.5-5.6-10-6.3s-11.3-0.5-12.6,0.9S292.5,527.9,292.5,527.9z"/>
</g>
<g id="_x31_72_1_">
	<path id="XMLID_58_" class="st1" d="M321.9,534.8c1.4,0.6,9,0.9,11.5,2s4.5,2.9,5.4,1.8s8.3-11.8,10.3-12.6s2.4-0.9,1.3-2.9
		s-3.9-5.6-6-5.9s-20.5,11.1-20.9,12.8S321.9,534.8,321.9,534.8z"/>
</g>
<g id="_x31_71">
	<path id="XMLID_56_" class="st1" d="M346.8,512.9c0,0,2.8,1.3,3.9,3.6s2.6,3.9,2.6,3.9s7.8-9.6,8.3-11.8s0.9-4.6,0-5.8
		s-2.8-3.9-4.4-3.8s-6.6,5.6-7.4,7.5S346.8,512.9,346.8,512.9z"/>
</g>
<g id="_x31_70">
	<path id="XMLID_77_" class="st1" d="M244.8,536.1c-1.4,0.2-0.5,8.8,0.6,12.6s3.4,9.3,4.1,9.3s3.5-1.9,4.9-1.5s2.8,2.9,3.4,2.1
		s2.1-1.8,0.5-5.6s-5.3-12.9-7.8-15S245.9,536,244.8,536.1z"/>
</g>
<g id="_x31_69">
	<path id="XMLID_78_" class="st1" d="M252.6,533.6c0,0.8,9.1,12.4,9.1,16.1s0.4,4.4,1.1,3.6s6.5-4.4,8.6-4.1c0,0-0.9-8.9-4.6-13.1
		s-7.8-6.1-10.5-5.3C253.6,531.7,252.6,533.6,252.6,533.6z"/>
</g>
<g id="_x31_68">
	<path id="XMLID_63_" class="st1" d="M284.5,551.5c-0.5,2.6,2.9,4.5,3.6,6.9s4.1,9.1,3.6,10.8c0,0,4.1,0.6,4.4,1c0,0,2.1-7.3,8-9.3
		s10.3-3,10-4.1s-9.3-12-13-12.3S285.3,547.6,284.5,551.5z"/>
</g>
<g id="_x31_67">
	<path id="XMLID_60_" class="st1" d="M318.1,555.9c0,0,8,1,10,2.5s3.5-3.8,6.5-4.4s2.1-0.9,1.5-1.6s-1.3-4.4-0.6-5.5
		s1.4-4.5,0.4-5.1s-13.1-3.9-16.5-3.1s-10,4.3-10.1,5.4S318.4,553.9,318.1,555.9z"/>
</g>
<g id="_x31_66">
	<path id="XMLID_59_" class="st1" d="M338.6,551.4c1.5,0.5,3.6-0.3,5.3-0.4s3.3,0.4,3.3-0.4s2.5-7.9,6-9.9s5.8-2.6,6.3-4.3
		s0-1.9-1.1-3.5s-4.4-4.8-6.6-4.3s-11.1,11.5-11.6,13.8S338.6,551.4,338.6,551.4z"/>
</g>
<g id="_x31_65">
	<path id="XMLID_57_" class="st1" d="M354.8,525c0.2,1,5.6,5.5,6.5,5.4s3.3-15.4,2.6-17.9C363.9,512.5,354,522,354.8,525z"/>
</g>
<g id="_x31_64">
	<path id="XMLID_76_" class="st1" d="M250.9,560.5l5.6-0.1c0,0,15.6,12.4,16.1,13.1s1.4,3.1-0.3,3.5s-9.8-3.5-15.6-9.8
		S250.9,560.5,250.9,560.5z"/>
</g>
<g id="_x31_63">
	<path id="XMLID_62_" class="st1" d="M261,560.3c0,0,4-7.8,8.4-7.5s10.9,0.5,13.6,5.5s4.5,9.4,4,10.1s-7,0.4-8.5,2s-2.5,2.6-2.9,2.8
		s-4.4-6.4-7.3-7.4S261,560.3,261,560.3z"/>
</g>
<g id="_x31_62">
	<path id="XMLID_75_" class="st1" d="M276.3,578.9c0,0,6.4,0.8,7.9,1.6s4.5,1,5.9,1s4.3,0.9,7.4,0.9s8.1,0.1,8.5-0.9s0-3.3-4.1-4.9
		s-6.9-3.1-8.6-3.6s-5.5-0.3-8.6-1S277,575.9,276.3,578.9z"/>
</g>
<g id="_x31_61">
	<path id="XMLID_61_" class="st1" d="M301.1,571.5c0,0,5.3,1.8,6.9,4s5-2.8,11.4-3.9s7.1-0.1,7-1.3s0.4-8.8,1.4-9.4
		c0,0-8.8-2.3-9.9-1.6s-12.4,4.1-14.3,5.9S300.3,569,301.1,571.5z"/>
</g>
<g id="_x31_60">
	<path id="XMLID_72_" class="st1" d="M340.4,573c0,0,7.3-4.1,7.6-4.9s4.4-8.8,4.4-10.3s-6-3.9-7.4-3.8s-11.8,3.8-12.5,5.3
		s-4.3,8.9-2.8,10.1S339.1,569.9,340.4,573z"/>
</g>
<g id="_x31_59">
	<path id="XMLID_47_" class="st1" d="M353.3,554c0,0,4.6-7.5,4.6-8.8s0.1-3.4-0.3-3.8s-4,4.4-5.3,5.3s-2.9,3.8-2.3,4.8
		S352,553.5,353.3,554z"/>
</g>
<g id="_x31_58">
	<path id="XMLID_74_" class="st1" d="M309.1,580c0,0,6-4.6,7-4.5s-1.1,2.3-0.6,2.6s3,0.8,3.4,1.6s-3.1,1.5-5.3,1.8s-3.4,1.3-4.4-0.3
		S309.1,580,309.1,580z"/>
</g>
<g id="_x31_57">
	<path id="XMLID_73_" class="st1" d="M324,574.1c0,0,6.3-0.8,7.6-0.8s4.6,0.9,4.4,1.6s-6.5,1.9-8.4,2.8s-1.5,1-2.4,0.8
		s-1.4-0.5-1.5-1.5s0.5-0.6,0.4-1.8S324,574.1,324,574.1z"/>
</g>
</svg>
