<?xml version="1.0" encoding="utf-8"?>
<!-- Generator: Adobe Illustrator 19.0.0, SVG Export Plug-In . SVG Version: 6.00 Build 0)  -->
<svg version="1.1" id="_x35_" xmlns="http://www.w3.org/2000/svg" xmlns:xlink="http://www.w3.org/1999/xlink" x="0px" y="0px"
	 viewBox="0 0 258 274.5" style="enable-background:new 0 0 258 274.5;" xml:space="preserve">
<style type="text/css">
	.st0{fill:none;stroke:#FFF200;stroke-width:2;stroke-miterlimit:10;}
</style>
<g id="inner_circle_copy_6">
</g>
<path id="XMLID_45_" class="st0" d="M207.6,145l-2.5-18.9l-1.3-3.6l-8.5,2.8l7.5-5.7l-3.5-9.9l-3.7,2.5l2.5-4.8l-5.5-6.2l-12.9,8.7
	l10.3-11.8l-3.8-4.1l-7.3-5.9l-2.9-1.8l-2.5,3.5l1.7-4.7l-4.7-2.8l-2.5-1.5l-2.9,4.2l1.1-6.6l-6.9-2.2l-10.7-1.7l-4.4-0.4l-2.3,13.5
	l-3.3-13.8l-9.2-0.8l-6.9,1.2l-4.2,1.9v6.9l-4.2-5.6l-5.7,1.8l-6.9,4.3L96,86.7l-6.4,3.9l2.2,5.9l-5.7-2.6l-3,2.9l-3.3,3.9l-3.7,5.9
	l8.8,9.7l-13.2-2.7l-2.2,5.6l-2.2,5.7l-1.7,7.5l5.4,3.1l-6,1.7l-0.4,3.9l-0.1,3.8l0.6,7.7l0.3,3.3l1.1,5.7l1.9,1.2l-1.1,1.1l1.4,4
	l5.7-0.2l-4.5,3.6l1.4,4.1l2.8,5.3l1.1,1.8l10.1-5.5l-8.1,8.7l5.5,6.1l4.3-2.8l-2.3,5l4.7,5.2l3.9,3l6.7-2.9l0.1,7.5l5,2.1l2.1,0.9
	l4-2.6l1.1,4.6l5.1,2.1l3.7,0.7l3.3-10.4l0.2,11l2.7,0.5l3.3,0.2l3.3,0.2l3.5-0.4l5.6,0.3l1.1-6.2l2.5,5.7l19.4-5.6l0.3-3.2l1.7,2.3
	l5.8-3.2l-3.7-8.9l6.8,6.6l5.1-3.7l10.9-12.2l-1.1-3.9l3.3,1.2l7-12.2l-9-5.3l10,2.4l3.8-19.8l-8.4-2.9L207.6,145z M137.3,172.1
	c-14.2,0-25.8-11.5-25.8-25.8c0-14.2,11.5-25.8,25.8-25.8c14.2,0,25.8,11.5,25.8,25.8C163,160.6,151.5,172.1,137.3,172.1z"/>
</svg>
