<?xml version="1.0" encoding="utf-8"?>
<!-- Generator: Adobe Illustrator 19.0.0, SVG Export Plug-In . SVG Version: 6.00 Build 0)  -->
<svg version="1.1" id="path" xmlns="http://www.w3.org/2000/svg" xmlns:xlink="http://www.w3.org/1999/xlink" x="0px" y="0px"
	 viewBox="0 0 612 792" style="enable-background:new 0 0 612 792;" xml:space="preserve">
<style type="text/css">
	.st0{fill:none;stroke:#FFF200;stroke-width:2;stroke-miterlimit:10;}
</style>
<path id="XMLID_3_" class="st0" d="M316.6,362.4c-11.1-27.9-30.4-33.4-30.4-33.4c9,10.4,12.3,33.5,12.3,33.5
	c-14-16-35.5-9.5-35.5-9.5c15.4,5.5,24.3,16.8,24.3,16.8c-12.4-6-20.3,0.7-20.3,0.7c15.6,2,22.3,14.8,22.3,14.8
	c-8.3-4.5-13.3,1.5-13.3,1.5c10.3,1.8,13,7.6,13,7.6s-12.9,7.4-10.3,43.4c1.1,14.5,8.3,27.1,11.3,28.3c9,3.5,28.7,2.6,35,2.3
	c8.7-0.5,14.3-21.8,14.5-31.5c0.3-13.3,2.5-32.4-10.8-43.4c0,0,4.6-7.7,13.3-7.1c0,0-2-5.4-10.5-3.3c0,0,9-12,23-13.5
	c0,0-9.8-6.9-24,0.5c0,0,10.4-19.1,26.5-24c0,0-20.6-3.5-36.6,12.6c-0.9,0.9-1.6,2-2.5,2.8L316.6,362.4z"/>
</svg>
