<?xml version="1.0" encoding="utf-8"?>
<!-- Generator: Adobe Illustrator 19.0.0, SVG Export Plug-In . SVG Version: 6.00 Build 0)  -->
<svg version="1.1" xmlns="http://www.w3.org/2000/svg" xmlns:xlink="http://www.w3.org/1999/xlink" x="0px" y="0px"
	 viewBox="0 0 612 792" style="enable-background:new 0 0 612 792;" xml:space="preserve">
<style type="text/css">
	.ring{fill:none;stroke:#FFF200;stroke-width:2;stroke-miterlimit:10;}
</style>
<g id="_x38_">
	<g id="inner_circle_copy_5">
	</g>
	<path id="XMLID_27_" class="ring" d="M431.5,692l-3.2-23.9l-1.6-4.5l-10.8,3.6l9.5-7.2l-4.4-12.5l-4.6,3.2l3.2-6.1l-7-7.8l-16.3,11
		l13-15l-4.8-5.2l-9.3-7.5l-3.6-2.2l-3.2,4.4l2.1-5.9l-6-3.6l-3.2-1.9l-3.6,5.3l1.4-8.4l-8.7-2.8l-13.5-2.2l-5.6-0.5l-2.9,17
		l-4.1-17.5l-11.7-1l-8.8,1.5l-5.3,2.4v8.8l-5.4-7.1l-7.2,2.3l-8.7,5.4l-6.8,4.2l-8.1,5l2.8,7.5l-7.2-3.3l-3.8,3.7l-4.1,4.9
		l-4.7,7.5l11.1,12.2l-16.7-3.4l-2.7,7.1l-2.8,7.2l-2.2,9.5l6.9,3.9l-7.6,2.2l-0.6,4.9l-0.1,4.9l0.7,9.7l0.3,4.2l1.4,7.3l2.4,1.5
		l-1.4,1.3l1.8,5l7.2-0.3l-5.7,4.5l1.8,5.1l3.5,6.8l1.5,2.3l12.8-7l-10.2,11l7,7.8l5.4-3.5l-2.9,6.3l6,6.6l5,3.8l8.5-3.6l0.1,9.5
		l6.3,2.6l2.6,1.1l5-3.2l1.3,5.9l6.4,2.7l4.6,0.9l4.1-13.1l0.3,14l3.4,0.7l4.1,0.3l4.1,0.3l4.4-0.6l7.1,0.3l1.5-7.9l3.2,7.2
		l24.5-7.1l0.4-4l2.2,2.9l7.3-4l-4.7-11.3l8.6,8.4l6.5-4.7l13.8-15.5l-1.3-5l4.2,1.5l8.9-15.4l-11.4-6.7l12.7,3.1l4.8-25.1
		l-10.6-3.6L431.5,692z M342.5,726.3c-18,0-32.6-14.6-32.6-32.6s14.6-32.6,32.6-32.6s32.6,14.6,32.6,32.6S360.5,726.3,342.5,726.3z"
		/>
</g>
<g id="_x37_">
	<g id="inner_circle_copy_3">
	</g>
	<path id="XMLID_30_" class="ring" d="M206.6,600.3l-1.9-14.1l-0.9-2.7l-6.4,2.1l5.6-4.3l-2.6-7.4l-2.7,1.9l1.9-3.6l-4.2-4.6
		l-9.7,6.5l7.7-8.8l-2.8-3.1l-5.5-4.4l-2.1-1.3l-1.9,2.6l1.2-3.5l-3.5-2.1l-1.9-1.1l-2.2,3.2l0.8-5l-5.2-1.7l-8-1.3l-3.3-0.3
		l-1.7,10.1L155,547l-6.9-0.6l-5.2,0.9l-3.2,1.4v5.2l-3.2-4.2l-4.3,1.3l-5.2,3.2l-4,2.5l-4.8,2.9l1.7,4.4l-4.2-1.9l-2.3,2.2
		l-2.5,2.9l-2.8,4.4l6.6,7.2l-9.9-2l-1.6,4.2l-1.6,4.2l-1.3,5.6l4.1,2.3l-4.5,1.3l-0.3,2.9l-0.1,2.9l0.4,5.8l0.2,2.5l0.8,4.3
		l1.4,0.9l-0.8,0.8l1,3l4.2-0.2l-3.4,2.7l1.1,3l2.1,4l0.9,1.4l7.6-4.1l-6.1,6.5l4.1,4.6l3.2-2.1l-1.7,3.7l3.5,3.9l2.9,2.3l5-2.1
		l0.1,5.6l3.7,1.6l1.6,0.6l3-1.9l0.8,3.5l3.8,1.6l2.7,0.5l2.4-7.8l0.2,8.3l2,0.4l2.4,0.1l2.5,0.2l2.6-0.3l4.2,0.2l0.9-4.7l1.9,4.3
		l14.5-4.2l0.2-2.4l1.3,1.7l4.3-2.4l-2.8-6.7l5.1,4.9l3.8-2.8l8.1-9.1l-0.8-2.9l2.5,0.9l5.2-9.1l-6.7-4l7.5,1.8l2.9-14.8l-6.3-2.2
		L206.6,600.3z M154,620.6c-10.6,0-19.3-8.6-19.3-19.3c0-10.6,8.6-19.3,19.3-19.3c10.6,0,19.3,8.6,19.3,19.3
		C173.2,612,164.6,620.6,154,620.6z"/>
</g>
<g id="_x36_">
	<g id="inner_circle_copy_8">
	</g>
	<path id="XMLID_24_" class="ring" d="M532,585.4l-2.1-15.6l-1-2.9l-7,2.3l6.2-4.7l-2.9-8.1l-3,2.1l2.1-4l-4.6-5.1l-10.6,7.1l8.5-9.8
		l-3.1-3.4l-6-4.9L506,537l-2.1,2.9l1.4-3.9l-3.9-2.3l-2.1-1.2l-2.4,3.5l0.9-5.5l-5.7-1.8l-8.8-1.4l-3.6-0.3l-1.9,11.1l-2.7-11.4
		l-7.6-0.6l-5.7,1l-3.5,1.6v5.7l-3.5-4.6l-4.7,1.5l-5.7,3.5l-4.4,2.7l-5.2,3.2l1.9,4.9l-4.7-2.1l-2.5,2.4l-2.7,3.2l-3.1,4.9l7.2,8
		l-10.9-2.2l-1.8,4.6l-1.8,4.7l-1.4,6.2l4.5,2.5l-4.9,1.4l-0.4,3.2l-0.1,3.2l0.5,6.3l0.2,2.7l0.9,4.7l1.5,1l-0.9,0.9l1.1,3.3
		l4.7-0.2l-3.7,2.9l1.2,3.3l2.3,4.4l0.9,1.5l8.3-4.6l-6.7,7.2l4.6,5.1l3.5-2.3l-1.9,4.1l3.9,4.3l3.2,2.5l5.5-2.4l0.1,6.2l4.1,1.7
		l1.7,0.7l3.3-2.1l0.9,3.8l4.2,1.7l3,0.6l2.7-8.6l0.2,9.1l2.2,0.4l2.7,0.2l2.7,0.2l2.8-0.4l4.6,0.2l0.9-5.1l2.1,4.7l16-4.6l0.2-2.6
		l1.4,1.9l4.8-2.6l-3.1-7.4l5.6,5.4l4.2-3.1l9-10.1l-0.9-3.2l2.7,1l5.8-10.1l-7.4-4.4l8.3,2l3.1-16.4l-6.9-2.4L532,585.4z
		 M474,607.7c-11.7,0-21.2-9.5-21.2-21.2c0-11.7,9.5-21.2,21.2-21.2s21.2,9.5,21.2,21.2C495.3,598.2,485.8,607.7,474,607.7z"/>
</g>
<g id="_x35_">
	<g id="inner_circle_copy_6">
	</g>
	<path id="XMLID_22_" class="ring" d="M453.1,459.4l-2.5-18.9l-1.3-3.6l-8.5,2.8l7.5-5.7l-3.5-9.9l-3.7,2.5l2.5-4.8l-5.5-6.2
		l-12.9,8.7l10.3-11.8l-3.8-4.1l-7.3-5.9l-2.9-1.8l-2.5,3.5l1.7-4.7l-4.7-2.8l-2.5-1.5l-2.9,4.2l1.1-6.6l-6.9-2.2l-10.7-1.7
		l-4.4-0.4l-2.3,13.5l-3.3-13.8l-9.2-0.8l-6.9,1.2l-4.2,1.9v6.9l-4.2-5.6l-5.7,1.8l-6.9,4.3l-5.4,3.3l-6.4,3.9l2.2,5.9l-5.7-2.6
		l-3,2.9l-3.3,3.9l-3.7,5.9l8.8,9.7l-13.2-2.7l-2.2,5.6l-2.2,5.7l-1.7,7.5l5.4,3.1l-6,1.7l-0.4,3.9l-0.1,3.8l0.6,7.7l0.3,3.3
		l1.1,5.7l1.9,1.2l-1.1,1.1l1.4,4l5.7-0.2l-4.5,3.6l1.4,4.1l2.8,5.3l1.1,1.8l10.1-5.5l-8.1,8.7l5.5,6.1l4.3-2.8l-2.3,5l4.7,5.2
		l3.9,3l6.7-2.9l0.1,7.5l5,2.1l2.1,0.9l4-2.6l1.1,4.6l5.1,2.1l3.7,0.7l3.3-10.4l0.2,11l2.7,0.5l3.3,0.2l3.3,0.2l3.5-0.4l5.6,0.3
		l1.1-6.2l2.5,5.7l19.4-5.6l0.3-3.2l1.7,2.3l5.8-3.2l-3.7-8.9l6.8,6.6l5.1-3.7l10.9-12.2l-1.1-3.9l3.3,1.2l7-12.2l-9-5.3l10,2.4
		l3.8-19.8l-8.4-2.9L453.1,459.4z M382.7,486.6c-14.2,0-25.8-11.5-25.8-25.8c0-14.2,11.5-25.8,25.8-25.8c14.2,0,25.8,11.5,25.8,25.8
		C408.5,475,397,486.6,382.7,486.6z"/>
</g>
<g id="_x34_">
	<g id="inner_circle_copy_4">
	</g>
	<path id="XMLID_23_" class="ring" d="M287.6,398l-3.1-23.1l-1.5-4.4l-10.4,3.5l9.2-7l-4.3-12.1L273,358l3.1-5.9l-6.8-7.5l-15.8,10.6
		l12.6-14.5l-4.6-5.1l-9-7.2l-3.5-2.2l-3.1,4.2l2-5.7l-5.8-3.5l-3.1-1.8l-3.5,5.2l1.3-8.1l-8.5-2.7l-13.1-2.1l-5.4-0.5l-2.8,16.5
		l-4-16.9l-11.3-0.9l-8.5,1.4l-5.2,2.4v8.5l-5.2-6.8l-7,2.2l-8.4,5.2l-6.6,4.1l-7.8,4.8l2.7,7.2l-6.9-3.2l-3.7,3.6l-4,4.7l-4.5,7.2
		l10.7,11.9l-16.1-3.2l-2.7,6.9l-2.7,6.9l-2.1,9.2l6.7,3.8l-7.3,2.1l-0.5,4.7l-0.1,4.7l0.7,9.4l0.3,4l1.4,7l2.3,1.4l-1.3,1.3
		l1.7,4.9l6.9-0.3l-5.5,4.3l1.7,5l3.4,6.5l1.4,2.2l12.4-6.8l-9.9,10.7l6.8,7.5l5.3-3.4l-2.8,6.1l5.8,6.4l4.8,3.7l8.2-3.5l0.1,9.2
		l6.1,2.6l2.5,1.1l4.9-3.1l1.3,5.7l6.2,2.6l4.5,0.9l4-12.7l0.3,13.5l3.3,0.6l4,0.2l4,0.2l4.2-0.5l6.8,0.3l1.4-7.6l3.1,7l23.7-6.9
		l0.4-3.9l2.1,2.8l7.1-3.9l-4.6-10.9l8.3,8.1l6.3-4.6l13.3-15l-1.3-4.8l4.1,1.5l8.6-14.9l-11-6.5l12.3,3l4.7-24.3l-10.2-3.5
		L287.6,398z M201.5,431.2c-17.4,0-31.5-14.1-31.5-31.5c0-17.4,14.1-31.5,31.5-31.5s31.5,14.1,31.5,31.5
		C233,417.1,218.9,431.2,201.5,431.2z"/>
</g>
<g id="_x33_">
	<g id="inner_circle_copy">
	</g>
	<path id="XMLID_15_" class="ring" d="M529.1,324.4l-1.8-13.6l-0.9-2.6l-6.1,2.1l5.4-4.1l-2.5-7.1l-2.6,1.8l1.8-3.5l-4-4.4l-9.3,6.2
		l7.4-8.5l-2.7-3l-5.3-4.3l-2.1-1.3l-1.8,2.5l1.2-3.4l-3.4-2l-1.8-1.1l-2.1,3l0.8-4.8l-5-1.6l-7.7-1.2l-3.2-0.3l-1.7,9.7l-2.4-10
		l-6.6-0.6l-5,0.8l-3,1.4v5l-3-4l-4.1,1.3l-5,3.1l-3.9,2.4l-4.6,2.8l1.6,4.3l-4.1-1.9l-2.2,2.1l-2.4,2.8l-2.7,4.2l6.3,7l-9.5-1.9
		l-1.6,4l-1.6,4.1l-1.3,5.4l3.9,2.2l-4.3,1.2l-0.3,2.8l-0.1,2.8l0.4,5.5l0.2,2.4l0.8,4.1l1.4,0.8l-0.8,0.8l1,2.9l4.1-0.2l-3.2,2.6
		l1,2.9l2,3.8l0.8,1.3l7.3-4l-5.8,6.3l4,4.4l3.1-2l-1.7,3.6l3.4,3.8l2.8,2.2l4.8-2.1l0.1,5.4l3.6,1.5l1.5,0.6l2.9-1.8l0.8,3.3
		l3.7,1.5l2.6,0.5l2.4-7.5l0.2,8l1.9,0.4l2.4,0.1l2.4,0.1l2.5-0.3l4,0.2l0.8-4.5l1.8,4.1l14-4.1l0.2-2.3l1.2,1.7l4.2-2.3l-2.7-6.4
		l4.9,4.8l3.7-2.7l7.8-8.8l-0.8-2.8l2.4,0.9l5-8.8l-6.5-3.8l7.2,1.8l2.7-14.3l-6-2.1L529.1,324.4z M478.4,343.9
		c-10.2,0-18.6-8.3-18.6-18.6c0-10.2,8.3-18.6,18.6-18.6c10.2,0,18.6,8.3,18.6,18.6C497,335.6,488.7,343.9,478.4,343.9z"/>
</g>
<g id="_x32_">
	<g id="inner_circle_copy_7">
	</g>
	<path id="XMLID_12_" class="ring" d="M181.1,241.9l-1.9-14.4l-1-2.7l-6.5,2.2l5.7-4.4l-2.6-7.5L172,217l1.9-3.7l-4.2-4.7l-9.8,6.6
		l7.9-9l-2.9-3.2l-5.6-4.5l-2.2-1.3l-1.9,2.6l1.3-3.6l-3.6-2.2l-1.9-1.1l-2.2,3.2l0.8-5.1l-5.3-1.7l-8.2-1.3l-3.4-0.3l-1.8,10.3
		l-2.5-10.5l-7-0.6l-5.3,0.9l-3.2,1.5v5.3l-3.2-4.3l-4.4,1.4l-5.3,3.3l-4.1,2.5l-4.9,3l1.7,4.5l-4.3-2l-2.3,2.2l-2.5,2.9l-2.8,4.5
		l6.7,7.4l-10-2l-1.7,4.3l-1.7,4.3l-1.3,5.7l4.2,2.4l-4.6,1.3l-0.3,2.9l-0.1,2.9l0.4,5.9l0.2,2.5l0.9,4.4l1.4,0.9l-0.8,0.8l1.1,3
		l4.3-0.2l-3.4,2.7l1.1,3.1l2.1,4.1l0.9,1.4l7.7-4.2l-6.2,6.7l4.2,4.7l3.3-2.1l-1.7,3.8l3.6,4l3,2.3l5.1-2.2l0.1,5.7l3.8,1.6
		l1.6,0.7l3-1.9l0.8,3.5l3.9,1.6l2.8,0.6l2.5-7.9l0.2,8.4l2,0.4l2.5,0.2l2.5,0.2l2.6-0.3l4.3,0.2l0.9-4.7l1.9,4.4l14.8-4.3l0.2-2.4
		l1.3,1.8l4.4-2.4l-2.9-6.8l5.2,5l3.9-2.8l8.3-9.3l-0.8-3l2.5,0.9l5.3-9.3L170,259l7.6,1.9l2.9-15.1l-6.4-2.2L181.1,241.9z
		 M127.5,262.5c-10.8,0-19.6-8.8-19.6-19.6c0-10.8,8.8-19.6,19.6-19.6s19.6,8.8,19.6,19.6C147.1,253.8,138.3,262.5,127.5,262.5z"/>
</g>
<g id="_x31__1_">
	<path id="XMLID_7_" class="ring" d="M431.6,204.3l-3.2-23.9l-1.6-4.5l-10.8,3.6l9.5-7.2l-4.4-12.5l-4.6,3.2l3.2-6.1l-7-7.8l-16.3,11
		l13-15l-4.8-5.2l-9.3-7.5l-3.6-2.2l-3.2,4.4l2.1-5.9l-6-3.6l-3.2-1.9l-3.6,5.4l1.4-8.4l-8.8-2.8l-13.6-2.2l-5.6-0.5l-2.9,17
		l-4.1-17.5l-11.7-1l-8.8,1.5l-5.4,2.4v8.8l-5.4-7.1l-7.2,2.3l-8.7,5.4l-6.8,4.2l-8.1,5l2.8,7.5l-7.2-3.3l-3.8,3.7l-4.1,4.9
		l-4.7,7.5l11.1,12.3l-16.7-3.4l-2.7,7.1l-2.8,7.2l-2.2,9.5l6.9,3.9l-7.6,2.2l-0.6,4.9l-0.1,4.9l0.7,9.7l0.3,4.2l1.4,7.3l2.4,1.5
		l-1.4,1.3l1.8,5l7.2-0.3l-5.7,4.5l1.8,5.1l3.5,6.8l1.5,2.3l12.8-7l-10.3,11l7,7.8l5.4-3.5l-2.9,6.3l6,6.6l5,3.8l8.5-3.6l0.1,9.5
		l6.3,2.6l2.6,1.1l5-3.2l1.3,5.9l6.4,2.7l4.6,0.9l4.1-13.1l0.3,14l3.4,0.7l4.1,0.3l4.2,0.3l4.4-0.6l7.1,0.3l1.5-7.9l3.2,7.3
		l24.5-7.1l0.4-4l2.2,2.9l7.3-4l-4.7-11.3l8.6,8.4l6.5-4.7l13.8-15.5l-1.3-5l4.2,1.5l8.9-15.4l-11.4-6.8l12.7,3.1l4.8-25.1
		l-10.6-3.6L431.6,204.3z M342.6,238.6c-18,0-32.6-14.6-32.6-32.6s14.6-32.6,32.6-32.6c18,0,32.6,14.6,32.6,32.6
		S360.6,238.6,342.6,238.6z"/>
	<g id="inner_circle">
	</g>
</g>
<g id="_x30_">
	<g id="inner_circle_copy_2">
	</g>
	<path id="XMLID_9_" class="ring" d="M296.8,76.3l-2.1-15.7l-1-3l-7.1,2.4l6.3-4.8l-2.9-8.2l-3,2.1l2.1-4l-4.6-5.1l-10.7,7.2l8.6-9.8
		l-3.1-3.4L273,29l-2.4-1.5l-2.1,2.9l1.4-3.9l-3.9-2.4l-2.1-1.3l-2.4,3.5l0.9-5.5l-5.8-1.9l-8.9-1.4l-3.7-0.3l-1.9,11.2L239.4,17
		l-7.7-0.6l-5.8,1l-3.5,1.6v5.8l-3.5-4.6l-4.8,1.5l-5.7,3.6l-4.5,2.8l-5.3,3.3l1.9,4.9l-4.7-2.2l-2.5,2.4l-2.7,3.2l-3.1,4.9l7.3,8.1
		l-11-2.2L182,55l-1.8,4.7l-1.5,6.2l4.5,2.6l-5,1.4l-0.4,3.2l-0.1,3.2l0.5,6.4l0.2,2.7l0.9,4.8l1.6,1l-0.9,0.9l1.2,3.3l4.7-0.2
		l-3.8,3l1.2,3.4l2.3,4.4l1,1.5l8.4-4.6l-6.7,7.3l4.6,5.1l3.6-2.3l-1.9,4.1l3.9,4.4l3.3,2.5l5.6-2.4l0.1,6.2l4.2,1.7l1.7,0.7
		l3.3-2.1l0.9,3.9l4.2,1.8l3,0.6l2.7-8.6l0.2,9.2l2.2,0.4l2.7,0.2l2.7,0.2l2.9-0.4l4.6,0.2l1-5.2l2.1,4.8l16.1-4.7l0.2-2.6l1.4,1.9
		l4.8-2.6l-3.1-7.4l5.6,5.5l4.3-3.1l9.1-10.2l-0.9-3.3l2.8,1l5.8-10.2l-7.5-4.4l8.3,2l3.2-16.5l-7-2.4L296.8,76.3z M238.3,98.9
		c-11.8,0-21.4-9.6-21.4-21.4S226.4,56,238.3,56s21.4,9.6,21.4,21.4S250.1,98.9,238.3,98.9z"/>
</g>
</svg>




