<?xml version="1.0" encoding="utf-8"?>
<!-- Generator: Adobe Illustrator 19.0.0, SVG Export Plug-In . SVG Version: 6.00 Build 0)  -->
<svg version="1.1" xmlns="http://www.w3.org/2000/svg" xmlns:xlink="http://www.w3.org/1999/xlink" x="0px" y="0px"
	 viewBox="0 0 145.5 142.6" style="enable-background:new 0 0 145.5 142.6;" xml:space="preserve">
<style type="text/css">
	.ring{stroke:#FFF200;stroke-width:2;stroke-miterlimit:10;}
</style>
<g id="_x30_">
	<path id="XMLID_9_" class="ring" d="M133.2,76.3l-2.1-15.7l-1-3L123,60l6.3-4.8l-2.9-8.2l-3,2.1l2.1-4l-4.6-5.1L110,47.2l8.6-9.8
		l-3.1-3.4l-6.1-4.9l-2.4-1.5l-2.1,2.9l1.4-3.9l-3.9-2.4l-2.1-1.3l-2.4,3.5l0.9-5.5L93,19.1l-8.9-1.4l-3.7-0.3l-1.9,11.2L75.8,17
		l-7.7-0.6l-5.8,1l-3.5,1.6v5.8L55.3,20l-4.8,1.5l-5.7,3.6l-4.5,2.8L35,31.1l1.9,4.9l-4.7-2.2l-2.5,2.4l-2.7,3.2l-3.1,4.9l7.3,8.1
		l-11-2.2L18.4,55l-1.8,4.7l-1.5,6.2l4.5,2.6l-5,1.4l-0.4,3.2l-0.1,3.2l0.5,6.4l0.2,2.7l0.9,4.8l1.6,1l-0.9,0.9l1.2,3.3l4.7-0.2
		l-3.8,3l1.2,3.4l2.3,4.4l1,1.5l8.4-4.6l-6.7,7.3l4.6,5.1l3.6-2.3l-1.9,4.1l3.9,4.4l3.3,2.5l5.6-2.4l0.1,6.2l4.2,1.7l1.7,0.7
		l3.3-2.1l0.9,3.9l4.2,1.8l3,0.6l2.7-8.6l0.2,9.2l2.2,0.4l2.7,0.2l2.7,0.2l2.9-0.4l4.6,0.2l1-5.2l2.1,4.8l16.1-4.7l0.2-2.6l1.4,1.9
		l4.8-2.6l-3.1-7.4l5.6,5.5l4.3-3.1l9.1-10.2l-0.9-3.3l2.8,1l5.8-10.2l-7.5-4.4l8.3,2l3.2-16.5l-7-2.4L133.2,76.3z M74.7,98.9
		c-11.8,0-21.4-9.6-21.4-21.4S62.8,56,74.7,56s21.4,9.6,21.4,21.4S86.5,98.9,74.7,98.9z"/>
</g>
</svg>
