<?xml version="1.0" encoding="utf-8"?>
<!-- Generator: Adobe Illustrator 19.0.0, SVG Export Plug-In . SVG Version: 6.00 Build 0)  -->
<svg version="1.1" id="_x32_" xmlns="http://www.w3.org/2000/svg" xmlns:xlink="http://www.w3.org/1999/xlink" x="0px" y="0px"
	 viewBox="0 0 136 160" style="enable-background:new 0 0 136 160;" xml:space="preserve">
<style type="text/css">
	.st0{fill:#FFFFFF;stroke:#FFF200;stroke-width:2;stroke-miterlimit:10;}
</style>
<g id="inner_circle_copy_7">
</g>
<path id="XMLID_6_" class="st0" d="M119.1,78.9l-1.9-14.4l-1-2.7l-6.5,2.2l5.7-4.4l-2.6-7.5L110,54l1.9-3.7l-4.2-4.7l-9.8,6.6l7.9-9
	l-2.9-3.2l-5.6-4.5l-2.2-1.3l-1.9,2.6l1.3-3.6l-3.6-2.2l-1.9-1.1l-2.2,3.2l0.8-5.1l-5.3-1.7l-8.2-1.3l-3.4-0.3L69,35.1l-2.5-10.5
	l-7-0.6l-5.3,0.9L51,26.3v5.3l-3.2-4.3l-4.4,1.4l-5.3,3.3L34,34.4l-4.9,3l1.7,4.5l-4.3-2l-2.3,2.2l-2.5,2.9l-2.8,4.5l6.7,7.4l-10-2
	l-1.7,4.3l-1.7,4.3l-1.3,5.7l4.2,2.4L10.5,73l-0.3,2.9l-0.1,2.9l0.4,5.9l0.2,2.5l0.9,4.4l1.4,0.9l-0.8,0.8l1.1,3l4.3-0.2l-3.4,2.7
	l1.1,3.1l2.1,4.1l0.9,1.4l7.7-4.2l-6.2,6.7l4.2,4.7l3.3-2.1l-1.7,3.8l3.6,4l3,2.3l5.1-2.2l0.1,5.7l3.8,1.6l1.6,0.7l3-1.9l0.8,3.5
	l3.9,1.6l2.8,0.6l2.5-7.9l0.2,8.4l2,0.4l2.5,0.2l2.5,0.2l2.6-0.3l4.3,0.2l0.9-4.7l1.9,4.4l14.8-4.3l0.2-2.4l1.3,1.8l4.4-2.4
	l-2.9-6.8l5.2,5l3.9-2.8l8.3-9.3l-0.8-3l2.5,0.9l5.3-9.3L108,96l7.6,1.9l2.9-15.1l-6.4-2.2L119.1,78.9z M65.5,99.5
	c-10.8,0-19.6-8.8-19.6-19.6c0-10.8,8.8-19.6,19.6-19.6s19.6,8.8,19.6,19.6C85.1,90.8,76.3,99.5,65.5,99.5z"/>
</svg>
