<?xml version="1.0" encoding="utf-8"?>
<!-- Generator: Adobe Illustrator 19.0.0, SVG Export Plug-In . SVG Version: 6.00 Build 0)  -->
<svg version="1.1" id="_x33_" xmlns="http://www.w3.org/2000/svg" xmlns:xlink="http://www.w3.org/1999/xlink" x="0px" y="0px"
	 viewBox="0 0 157.9 181" style="enable-background:new 0 0 157.9 181;" xml:space="preserve">
<style type="text/css">
	.st0{fill:none;stroke:#FFF200;stroke-width:2;stroke-miterlimit:10;}
</style>
<g id="inner_circle_copy">
</g>
<path id="XMLID_45_" class="st0" d="M124.6,100.1l-1.8-13.6l-0.9-2.6l-6.1,2.1l5.4-4.1l-2.5-7.1l-2.6,1.8l1.8-3.5l-4-4.4l-9.3,6.2
	l7.4-8.5l-2.7-3l-5.3-4.3l-2.1-1.3l-1.8,2.5l1.2-3.4l-3.4-2l-1.8-1.1l-2.1,3l0.8-4.8l-5-1.6l-7.7-1.2L78.9,49l-1.7,9.7l-2.4-10
	l-6.6-0.6l-5,0.8l-3,1.4v5l-3-4L53,52.6l-5,3.1l-3.9,2.4l-4.6,2.8l1.6,4.3l-4.1-1.9L35,65.4l-2.4,2.8l-2.7,4.2l6.3,7l-9.5-1.9
	l-1.6,4l-1.6,4.1l-1.3,5.4l3.9,2.2L22,94.5l-0.3,2.8l-0.1,2.8l0.4,5.5l0.2,2.4l0.8,4.1l1.4,0.8l-0.8,0.8l1,2.9l4.1-0.2l-3.2,2.6
	l1,2.9l2,3.8l0.8,1.3l7.3-4l-5.8,6.3l4,4.4l3.1-2l-1.7,3.6l3.4,3.8l2.8,2.2l4.8-2.1l0.1,5.4l3.6,1.5l1.5,0.6l2.9-1.8l0.8,3.3
	l3.7,1.5l2.6,0.5l2.4-7.5l0.2,8l1.9,0.4l2.4,0.1l2.4,0.1l2.5-0.3l4,0.2l0.8-4.5l1.8,4.1l14-4.1l0.2-2.3l1.2,1.7l4.2-2.3l-2.7-6.4
	l4.9,4.8l3.7-2.7l7.8-8.8l-0.8-2.8l2.4,0.9l5-8.8l-6.5-3.8l7.2,1.8l2.7-14.3l-6-2.1L124.6,100.1z M73.9,119.6
	c-10.2,0-18.6-8.3-18.6-18.6c0-10.2,8.3-18.6,18.6-18.6c10.2,0,18.6,8.3,18.6,18.6C92.5,111.3,84.2,119.6,73.9,119.6z"/>
</svg>
